<?xml version="1.0" encoding="utf-8"?>
<!-- Generator: Adobe Illustrator 18.1.1, SVG Export Plug-In . SVG Version: 6.00 Build 0)  -->
<svg version="1.1" id="svg2" xmlns:svg="http://www.w3.org/2000/svg"
	 xmlns="http://www.w3.org/2000/svg" xmlns:xlink="http://www.w3.org/1999/xlink" x="0px" y="0px" viewBox="13.3 -29.2 200.1 200.1"
	 enable-background="new 13.3 -29.2 200.1 200.1" xml:space="preserve">
<g id="layer1">
	<path id="path2221" fill="#FFFEF0" d="M86.5,157.2v-33.6H110h23.6v33.6v13.6H110H86.5V157.2z M86.8,97.4c0-15,0-20.6,22.9-42.3
		c4-3.9,12-10.6,19.5-17.3c4.6-4.6,6.4-6,7-14.5c-0.2-2.5-2.6-13.9-22-13.9c-19.9,0-24.4,11.8-25.9,20.8c-0.8,3.3-1.5,11.7-1.7,11.6
		c-0.3,0-18.3-1.8-24.2-2.6c-2.6-0.4-16-1.6-16.4-1.6c-0.4,0-0.5-1.4-0.2-3.1C50.5-1.8,62.5-13.2,79-21.8
		c15.8-8.2,40.5-9.7,59.4-3.6c27,8.6,42.9,36.1,36.2,62.4c-3.2,12.4-7.5,19.3-25.7,35.6c-10,8.4-11.5,8.1-14,14.4
		c-1.7,4.3-1.4,8-1.4,14.4v3.5h-21.9H86.8L86.8,97.4L86.8,97.4z"/>
</g>
</svg>
